# xmcd CD database file
#
# Track frame offsets:
#	150
#	7642
#	20745
#	34850
#	49219
#	58684
#	67866
#	77391
#	92370
#	108754
#	121744
#	138216
#	148812
#	158341
#	168830
#	180318
#
# Disc length: 2608 seconds
#
# Revision: 0
# Processed by: cddbd v1.5.1PL0 Copyright (c) Steve Scherf et al.
# Submitted via: CDex 1.51
#
DISCID=b00a2e10
DTITLE=John Lee Granderson - Hard Luck John
DYEAR=1998
DGENRE=Blues
TTITLE0=Minglewood Blues
TTITLE1=Hard Luck John
TTITLE2=Flora Blues
TTITLE3=Please Come Back To Me
TTITLE4=Death Valley Blues
TTITLE5=Texas Blues
TTITLE6=Rock Me All Night Long
TTITLE7=Cold Dark Evening
TTITLE8=Country Farm Blues
TTITLE9=Decoration Day
TTITLE10=Aching Pain Blues
TTITLE11=This Is Your Last Chance
TTITLE12=That's Doggin' Me
TTITLE13=Watch Out, Girl
TTITLE14=Got To Bend You Over, Baby
TTITLE15=One Kind Of Favour
EXTD=YEAR: 1998
EXTT0=
EXTT1=
EXTT2=
EXTT3=
EXTT4=
EXTT5=
EXTT6=
EXTT7=
EXTT8=
EXTT9=
EXTT10=
EXTT11=
EXTT12=
EXTT13=
EXTT14=
EXTT15=
PLAYORDER=
